<svg width="37" height="37" viewBox="0 0 37 37" fill="none" xmlns="http://www.w3.org/2000/svg">
<path d="M13.875 16.9583V9.25C13.875 8.02337 14.3623 6.84699 15.2296 5.97963C16.097 5.11228 17.2734 4.625 18.5 4.625C19.7266 4.625 20.903 5.11228 21.7704 5.97963C22.6377 6.84699 23.125 8.02337 23.125 9.25V16.9583M9.76028 12.3333H27.2412C27.6858 12.3333 28.1251 12.4294 28.5291 12.615C28.933 12.8006 29.2921 13.0714 29.5816 13.4088C29.8711 13.7462 30.0842 14.1422 30.2063 14.5697C30.3284 14.9971 30.3567 15.4459 30.2891 15.8853L28.3543 28.453C28.1864 29.5452 27.6329 30.5411 26.7941 31.2606C25.9554 31.98 24.8868 32.3753 23.7817 32.375H13.2182C12.1135 32.3749 11.0452 31.9794 10.2068 31.2601C9.36835 30.5407 8.81512 29.5449 8.64719 28.453L6.7124 15.8853C6.64483 15.4459 6.67307 14.9971 6.7952 14.5697C6.91732 14.1422 7.13044 13.7462 7.41994 13.4088C7.70944 13.0714 8.06848 12.8006 8.47243 12.615C8.87639 12.4294 9.31571 12.3333 9.76028 12.3333Z" stroke="white" stroke-opacity="0.8" stroke-width="2" stroke-linecap="round" stroke-linejoin="round"/>
</svg>
