<svg width="18" height="18" viewBox="0 0 18 18" fill="none" xmlns="http://www.w3.org/2000/svg">
<path d="M13.5 6.75C14.139 6.75 14.4728 7.4895 14.0873 7.96725L14.0303 8.03025L9.53028 12.5303C9.40113 12.6594 9.22931 12.737 9.04704 12.7484C8.86477 12.7599 8.68458 12.7044 8.54028 12.5925L8.46978 12.5303L3.96978 8.03025L3.90753 7.95975L3.86703 7.902L3.82653 7.83L3.81378 7.803L3.79353 7.75275L3.76953 7.67175L3.76203 7.632L3.75453 7.587L3.75153 7.54425V7.45575L3.75528 7.41225L3.76203 7.36725L3.76953 7.32825L3.79353 7.24725L3.81378 7.197L3.86628 7.098L3.91503 7.0305L3.96978 6.96975L4.04028 6.9075L4.09803 6.867L4.17003 6.8265L4.19703 6.81375L4.24728 6.7935L4.32828 6.7695L4.36803 6.762L4.41303 6.7545L4.45578 6.7515L13.5 6.75Z" fill="white" fill-opacity="0.6"/>
</svg>
