<svg width="89" height="89" viewBox="0 0 89 89" fill="none" xmlns="http://www.w3.org/2000/svg">
<path d="M18.5417 63.0417C18.5417 65.0087 19.3231 66.8951 20.714 68.286C22.1049 69.6769 23.9913 70.4583 25.9583 70.4583C27.9254 70.4583 29.8118 69.6769 31.2027 68.286C32.5936 66.8951 33.375 65.0087 33.375 63.0417M18.5417 63.0417C18.5417 61.0747 19.3231 59.1882 20.714 57.7973C22.1049 56.4064 23.9913 55.625 25.9583 55.625C27.9254 55.625 29.8118 56.4064 31.2027 57.7973C32.5936 59.1882 33.375 61.0747 33.375 63.0417M18.5417 63.0417H11.125V22.25C11.125 21.2665 11.5157 20.3233 12.2111 19.6278C12.9066 18.9324 13.8498 18.5417 14.8333 18.5417H48.2083V63.0417M33.375 63.0417H55.625M55.625 63.0417C55.625 65.0087 56.4064 66.8951 57.7973 68.286C59.1882 69.6769 61.0746 70.4583 63.0417 70.4583C65.0087 70.4583 66.8951 69.6769 68.286 68.286C69.6769 66.8951 70.4583 65.0087 70.4583 63.0417M55.625 63.0417C55.625 61.0747 56.4064 59.1882 57.7973 57.7973C59.1882 56.4064 61.0746 55.625 63.0417 55.625C65.0087 55.625 66.8951 56.4064 68.286 57.7973C69.6769 59.1882 70.4583 61.0747 70.4583 63.0417M70.4583 63.0417H77.875V40.7917M77.875 40.7917H48.2083M77.875 40.7917L66.75 22.25H48.2083" stroke="#013F80" stroke-width="5" stroke-linecap="round" stroke-linejoin="round"/>
</svg>
