<svg width="24" height="24" viewBox="0 0 24 24" fill="none" xmlns="http://www.w3.org/2000/svg">
<path d="M5.50001 3C6.07202 2.99994 6.63534 3.14008 7.14065 3.40815C7.64595 3.67622 8.07786 4.06405 8.39856 4.5377C8.71927 5.01136 8.91899 5.55639 8.98026 6.12512C9.04153 6.69384 8.96247 7.26891 8.75001 7.8C7.79073 8.30349 6.96106 9.02226 6.32601 9.9C5.84503 10.0175 5.34458 10.0316 4.85774 9.94143C4.37089 9.85123 3.90872 9.65875 3.50176 9.37673C3.0948 9.0947 2.75231 8.72954 2.49691 8.30536C2.24152 7.88118 2.07903 7.40764 2.02017 6.91602C1.96132 6.42439 2.00745 5.92588 2.15551 5.4534C2.30356 4.98093 2.55018 4.54524 2.87908 4.17512C3.20797 3.80501 3.61165 3.50888 4.06344 3.30632C4.51524 3.10375 5.00488 2.99935 5.50001 3Z" stroke="white" stroke-opacity="0.8" stroke-width="2" stroke-linecap="round" stroke-linejoin="round"/>
<path d="M18.5 3C18.9944 3.0005 19.4831 3.10576 19.9339 3.30883C20.3847 3.5119 20.7874 3.80818 21.1154 4.17815C21.4434 4.54812 21.6893 4.98339 21.8369 5.45528C21.9844 5.92717 22.0304 6.42497 21.9716 6.91589C21.9129 7.40682 21.7508 7.87973 21.496 8.30346C21.2412 8.7272 20.8996 9.09215 20.4935 9.37428C20.0875 9.6564 19.6263 9.8493 19.1403 9.94026C18.6543 10.0312 18.1546 10.0182 17.674 9.902C17.0394 9.02307 16.2097 8.30322 15.25 7.799C15.0377 7.26796 14.9588 6.693 15.0202 6.12441C15.0816 5.55582 15.2813 5.01094 15.602 4.53742C15.9227 4.0639 16.3545 3.67617 16.8597 3.40816C17.3649 3.14014 17.9281 3 18.5 3Z" stroke="white" stroke-opacity="0.8" stroke-width="2" stroke-linecap="round" stroke-linejoin="round"/>
<path d="M5 14C5 14.9193 5.18106 15.8295 5.53284 16.6788C5.88463 17.5281 6.40024 18.2997 7.05025 18.9497C7.70026 19.5998 8.47194 20.1154 9.32122 20.4672C10.1705 20.8189 11.0807 21 12 21C12.9193 21 13.8295 20.8189 14.6788 20.4672C15.5281 20.1154 16.2997 19.5998 16.9497 18.9497C17.5998 18.2997 18.1154 17.5281 18.4672 16.6788C18.8189 15.8295 19 14.9193 19 14C19 13.0807 18.8189 12.1705 18.4672 11.3212C18.1154 10.4719 17.5998 9.70026 16.9497 9.05025C16.2997 8.40024 15.5281 7.88463 14.6788 7.53284C13.8295 7.18106 12.9193 7 12 7C11.0807 7 10.1705 7.18106 9.32122 7.53284C8.47194 7.88463 7.70026 8.40024 7.05025 9.05025C6.40024 9.70026 5.88463 10.4719 5.53284 11.3212C5.18106 12.1705 5 13.0807 5 14Z" stroke="white" stroke-opacity="0.8" stroke-width="2" stroke-linecap="round" stroke-linejoin="round"/>
</svg>
