<svg width="18" height="18" viewBox="0 0 18 18" fill="none" xmlns="http://www.w3.org/2000/svg">
<path d="M13.5 6.75C14.139 6.75 14.4728 7.4895 14.0873 7.96725L14.0303 8.03025L9.53026 12.5303C9.40112 12.6594 9.22929 12.737 9.04702 12.7484C8.86475 12.7599 8.68456 12.7044 8.54026 12.5925L8.46976 12.5303L3.96976 8.03025L3.90751 7.95975L3.86701 7.902L3.82651 7.83L3.81376 7.803L3.79351 7.75275L3.76951 7.67175L3.76201 7.632L3.75451 7.587L3.75151 7.54425V7.45575L3.75526 7.41225L3.76201 7.36725L3.76951 7.32825L3.79351 7.24725L3.81376 7.197L3.86626 7.098L3.91501 7.0305L3.96976 6.96975L4.04026 6.9075L4.09801 6.867L4.17001 6.8265L4.19701 6.81375L4.24726 6.7935L4.32826 6.7695L4.36801 6.762L4.41301 6.7545L4.45576 6.7515L13.5 6.75Z" fill="white" fill-opacity="0.6"/>
</svg>
