<svg width="56" height="45" viewBox="0 0 56 45" fill="none" xmlns="http://www.w3.org/2000/svg">
<path d="M8.55556 36.3333C8.55556 37.8068 9.14087 39.2198 10.1827 40.2617C11.2246 41.3036 12.6377 41.8889 14.1111 41.8889C15.5845 41.8889 16.9976 41.3036 18.0395 40.2617C19.0813 39.2198 19.6667 37.8068 19.6667 36.3333M8.55556 36.3333C8.55556 34.8599 9.14087 33.4468 10.1827 32.405C11.2246 31.3631 12.6377 30.7778 14.1111 30.7778C15.5845 30.7778 16.9976 31.3631 18.0395 32.405C19.0813 33.4468 19.6667 34.8599 19.6667 36.3333M8.55556 36.3333H3V5.77778C3 5.04107 3.29266 4.33453 3.81359 3.81359C4.33453 3.29266 5.04107 3 5.77778 3H30.7778V19.6667H16.8889M19.6667 36.3333H36.3333M36.3333 36.3333C36.3333 37.8068 36.9186 39.2198 37.9605 40.2617C39.0024 41.3036 40.4155 41.8889 41.8889 41.8889C43.3623 41.8889 44.7754 41.3036 45.8173 40.2617C46.8591 39.2198 47.4444 37.8068 47.4444 36.3333M36.3333 36.3333C36.3333 34.8599 36.9186 33.4468 37.9605 32.405C39.0024 31.3631 40.4155 30.7778 41.8889 30.7778C43.3623 30.7778 44.7754 31.3631 45.8173 32.405C46.8591 33.4468 47.4444 34.8599 47.4444 36.3333M47.4444 36.3333H53V19.6667L44.6667 5.77778H30.7778M16.8889 19.6667L22.4444 25.2222M16.8889 19.6667L22.4444 14.1111" stroke="#013F80" stroke-width="5" stroke-linecap="round" stroke-linejoin="round"/>
</svg>
