<svg width="56" height="56" viewBox="0 0 56 56" fill="none" xmlns="http://www.w3.org/2000/svg">
<path d="M43.625 15.5V6.125C43.625 5.2962 43.2958 4.50134 42.7097 3.91529C42.1237 3.32924 41.3288 3 40.5 3H9.25C7.5924 3 6.00268 3.65848 4.83058 4.83058C3.65848 6.00268 3 7.5924 3 9.25M3 9.25C3 10.9076 3.65848 12.4973 4.83058 13.6694C6.00268 14.8415 7.5924 15.5 9.25 15.5H46.75C47.5788 15.5 48.3737 15.8292 48.9597 16.4153C49.5458 17.0013 49.875 17.7962 49.875 18.625V28M3 9.25V46.75C3 48.4076 3.65848 49.9973 4.83058 51.1694C6.00268 52.3415 7.5924 53 9.25 53H46.75C47.5788 53 48.3737 52.6708 48.9597 52.0847C49.5458 51.4987 49.875 50.7038 49.875 49.875V40.5M53 28V40.5H40.5C38.8424 40.5 37.2527 39.8415 36.0806 38.6694C34.9085 37.4973 34.25 35.9076 34.25 34.25C34.25 32.5924 34.9085 31.0027 36.0806 29.8306C37.2527 28.6585 38.8424 28 40.5 28H53Z" stroke="#013F80" stroke-width="5" stroke-linecap="round" stroke-linejoin="round"/>
</svg>
